<mxfile host="app.diagrams.net" agent="Mozilla/5.0 (Windows NT 10.0; Win64; x64) AppleWebKit/537.36 (KHTML, like Gecko) Chrome/131.0.0.0 Safari/537.36" version="28.1.1">
  <diagram name="PÃ¡gina-1" id="RFW3i6rPfgu-Dd-O8ILE">
    <mxGraphModel dx="983" dy="536" grid="1" gridSize="10" guides="1" tooltips="1" connect="1" arrows="1" fold="1" page="1" pageScale="1" pageWidth="827" pageHeight="1169" math="0" shadow="0">
      <root>
        <mxCell id="0" />
        <mxCell id="1" parent="0" />
        <mxCell id="dexvFyePQdmzR5AeKXSp-4" value="" style="edgeStyle=orthogonalEdgeStyle;rounded=0;orthogonalLoop=1;jettySize=auto;html=1;fillColor=#e1d5e7;strokeColor=#9673a6;" edge="1" parent="1" source="dexvFyePQdmzR5AeKXSp-1" target="dexvFyePQdmzR5AeKXSp-3">
          <mxGeometry relative="1" as="geometry" />
        </mxCell>
        <mxCell id="dexvFyePQdmzR5AeKXSp-1" value="departamento" style="whiteSpace=wrap;html=1;align=center;fillColor=#e1d5e7;strokeColor=#9673a6;glass=1;" vertex="1" parent="1">
          <mxGeometry x="120" y="180" width="100" height="40" as="geometry" />
        </mxCell>
        <mxCell id="dexvFyePQdmzR5AeKXSp-5" style="edgeStyle=orthogonalEdgeStyle;rounded=0;orthogonalLoop=1;jettySize=auto;html=1;entryX=1;entryY=0.5;entryDx=0;entryDy=0;fillColor=#e1d5e7;strokeColor=#9673a6;" edge="1" parent="1" source="dexvFyePQdmzR5AeKXSp-2" target="dexvFyePQdmzR5AeKXSp-3">
          <mxGeometry relative="1" as="geometry" />
        </mxCell>
        <mxCell id="dexvFyePQdmzR5AeKXSp-2" value="funcionarios" style="whiteSpace=wrap;html=1;align=center;fillColor=#e1d5e7;strokeColor=#9673a6;" vertex="1" parent="1">
          <mxGeometry x="510" y="180" width="100" height="40" as="geometry" />
        </mxCell>
        <mxCell id="dexvFyePQdmzR5AeKXSp-3" value="possui" style="rhombus;whiteSpace=wrap;html=1;fillColor=#e1d5e7;strokeColor=#9673a6;" vertex="1" parent="1">
          <mxGeometry x="320" y="160" width="80" height="80" as="geometry" />
        </mxCell>
        <mxCell id="dexvFyePQdmzR5AeKXSp-6" value="1" style="text;html=1;align=center;verticalAlign=middle;resizable=0;points=[];autosize=1;" vertex="1" parent="1">
          <mxGeometry x="220" y="168" width="30" height="30" as="geometry" />
        </mxCell>
        <mxCell id="dexvFyePQdmzR5AeKXSp-7" value="N" style="text;html=1;align=center;verticalAlign=middle;resizable=0;points=[];autosize=1;" vertex="1" parent="1">
          <mxGeometry x="475" y="178" width="30" height="30" as="geometry" />
        </mxCell>
        <mxCell id="dexvFyePQdmzR5AeKXSp-9" value="nome" style="ellipse;whiteSpace=wrap;html=1;align=center;fillColor=#e1d5e7;strokeColor=#9673a6;" vertex="1" parent="1">
          <mxGeometry x="190" y="120" width="60" height="30" as="geometry" />
        </mxCell>
        <mxCell id="dexvFyePQdmzR5AeKXSp-10" value="descricao" style="ellipse;whiteSpace=wrap;html=1;align=center;fillColor=#e1d5e7;strokeColor=#9673a6;" vertex="1" parent="1">
          <mxGeometry x="100" y="120" width="60" height="30" as="geometry" />
        </mxCell>
        <mxCell id="dexvFyePQdmzR5AeKXSp-14" value="" style="edgeStyle=orthogonalEdgeStyle;rounded=0;orthogonalLoop=1;jettySize=auto;html=1;fillColor=#e1d5e7;strokeColor=#9673a6;" edge="1" parent="1" source="dexvFyePQdmzR5AeKXSp-11" target="dexvFyePQdmzR5AeKXSp-1">
          <mxGeometry relative="1" as="geometry" />
        </mxCell>
        <mxCell id="dexvFyePQdmzR5AeKXSp-11" value="telefone" style="ellipse;whiteSpace=wrap;html=1;align=center;fillColor=#e1d5e7;strokeColor=#9673a6;" vertex="1" parent="1">
          <mxGeometry x="20" y="190" width="60" height="30" as="geometry" />
        </mxCell>
        <mxCell id="dexvFyePQdmzR5AeKXSp-12" style="edgeStyle=orthogonalEdgeStyle;rounded=0;orthogonalLoop=1;jettySize=auto;html=1;entryX=0.301;entryY=-0.038;entryDx=0;entryDy=0;entryPerimeter=0;fillColor=#e1d5e7;strokeColor=#9673a6;" edge="1" parent="1" source="dexvFyePQdmzR5AeKXSp-10" target="dexvFyePQdmzR5AeKXSp-1">
          <mxGeometry relative="1" as="geometry" />
        </mxCell>
        <mxCell id="dexvFyePQdmzR5AeKXSp-13" style="edgeStyle=orthogonalEdgeStyle;rounded=0;orthogonalLoop=1;jettySize=auto;html=1;entryX=0.687;entryY=-0.055;entryDx=0;entryDy=0;entryPerimeter=0;fillColor=#e1d5e7;strokeColor=#9673a6;" edge="1" parent="1" source="dexvFyePQdmzR5AeKXSp-9" target="dexvFyePQdmzR5AeKXSp-1">
          <mxGeometry relative="1" as="geometry" />
        </mxCell>
        <mxCell id="dexvFyePQdmzR5AeKXSp-15" value="nome" style="ellipse;whiteSpace=wrap;html=1;align=center;fillColor=#e1d5e7;strokeColor=#9673a6;" vertex="1" parent="1">
          <mxGeometry x="445" y="130" width="60" height="30" as="geometry" />
        </mxCell>
        <mxCell id="dexvFyePQdmzR5AeKXSp-16" value="telefone" style="ellipse;whiteSpace=wrap;html=1;align=center;fillColor=#e1d5e7;strokeColor=#9673a6;" vertex="1" parent="1">
          <mxGeometry x="540" y="110" width="60" height="30" as="geometry" />
        </mxCell>
        <mxCell id="dexvFyePQdmzR5AeKXSp-23" style="edgeStyle=orthogonalEdgeStyle;rounded=0;orthogonalLoop=1;jettySize=auto;html=1;entryX=0.75;entryY=0;entryDx=0;entryDy=0;fillColor=#e1d5e7;strokeColor=#9673a6;" edge="1" parent="1" source="dexvFyePQdmzR5AeKXSp-17" target="dexvFyePQdmzR5AeKXSp-2">
          <mxGeometry relative="1" as="geometry">
            <Array as="points">
              <mxPoint x="610" y="135" />
              <mxPoint x="610" y="170" />
              <mxPoint x="585" y="170" />
            </Array>
          </mxGeometry>
        </mxCell>
        <mxCell id="dexvFyePQdmzR5AeKXSp-17" value="endereco" style="ellipse;whiteSpace=wrap;html=1;align=center;fillColor=#e1d5e7;strokeColor=#9673a6;" vertex="1" parent="1">
          <mxGeometry x="630" y="120" width="60" height="30" as="geometry" />
        </mxCell>
        <mxCell id="dexvFyePQdmzR5AeKXSp-24" style="edgeStyle=orthogonalEdgeStyle;rounded=0;orthogonalLoop=1;jettySize=auto;html=1;entryX=1;entryY=0.5;entryDx=0;entryDy=0;fillColor=#e1d5e7;strokeColor=#9673a6;" edge="1" parent="1" source="dexvFyePQdmzR5AeKXSp-18" target="dexvFyePQdmzR5AeKXSp-2">
          <mxGeometry relative="1" as="geometry" />
        </mxCell>
        <mxCell id="dexvFyePQdmzR5AeKXSp-18" value="cpf" style="ellipse;whiteSpace=wrap;html=1;align=center;fillColor=#e1d5e7;strokeColor=#9673a6;" vertex="1" parent="1">
          <mxGeometry x="640" y="180" width="60" height="30" as="geometry" />
        </mxCell>
        <mxCell id="dexvFyePQdmzR5AeKXSp-19" value="carga horaria" style="ellipse;whiteSpace=wrap;html=1;align=center;fillColor=#e1d5e7;strokeColor=#9673a6;" vertex="1" parent="1">
          <mxGeometry x="590" y="250" width="60" height="30" as="geometry" />
        </mxCell>
        <mxCell id="dexvFyePQdmzR5AeKXSp-20" value="data de ingresso" style="ellipse;whiteSpace=wrap;html=1;align=center;fillColor=#e1d5e7;strokeColor=#9673a6;" vertex="1" parent="1">
          <mxGeometry x="490" y="260" width="60" height="30" as="geometry" />
        </mxCell>
        <mxCell id="dexvFyePQdmzR5AeKXSp-21" style="edgeStyle=orthogonalEdgeStyle;rounded=0;orthogonalLoop=1;jettySize=auto;html=1;entryX=0.167;entryY=-0.038;entryDx=0;entryDy=0;entryPerimeter=0;fillColor=#e1d5e7;strokeColor=#9673a6;" edge="1" parent="1" source="dexvFyePQdmzR5AeKXSp-15" target="dexvFyePQdmzR5AeKXSp-2">
          <mxGeometry relative="1" as="geometry" />
        </mxCell>
        <mxCell id="dexvFyePQdmzR5AeKXSp-22" style="edgeStyle=orthogonalEdgeStyle;rounded=0;orthogonalLoop=1;jettySize=auto;html=1;entryX=0.442;entryY=0.1;entryDx=0;entryDy=0;entryPerimeter=0;fillColor=#e1d5e7;strokeColor=#9673a6;" edge="1" parent="1" source="dexvFyePQdmzR5AeKXSp-16" target="dexvFyePQdmzR5AeKXSp-2">
          <mxGeometry relative="1" as="geometry">
            <Array as="points">
              <mxPoint x="570" y="160" />
              <mxPoint x="554" y="160" />
            </Array>
          </mxGeometry>
        </mxCell>
        <mxCell id="dexvFyePQdmzR5AeKXSp-25" style="edgeStyle=orthogonalEdgeStyle;rounded=0;orthogonalLoop=1;jettySize=auto;html=1;entryX=0.836;entryY=1.031;entryDx=0;entryDy=0;entryPerimeter=0;fillColor=#e1d5e7;strokeColor=#9673a6;" edge="1" parent="1" source="dexvFyePQdmzR5AeKXSp-19" target="dexvFyePQdmzR5AeKXSp-2">
          <mxGeometry relative="1" as="geometry" />
        </mxCell>
        <mxCell id="dexvFyePQdmzR5AeKXSp-27" style="edgeStyle=orthogonalEdgeStyle;rounded=0;orthogonalLoop=1;jettySize=auto;html=1;entryX=0.394;entryY=1.066;entryDx=0;entryDy=0;entryPerimeter=0;fillColor=#e1d5e7;strokeColor=#9673a6;" edge="1" parent="1" source="dexvFyePQdmzR5AeKXSp-20" target="dexvFyePQdmzR5AeKXSp-2">
          <mxGeometry relative="1" as="geometry" />
        </mxCell>
        <mxCell id="dexvFyePQdmzR5AeKXSp-28" value="exercicio 01" style="rounded=1;arcSize=10;whiteSpace=wrap;html=1;align=center;fillColor=#e1d5e7;strokeColor=#9673a6;" vertex="1" parent="1">
          <mxGeometry x="30" y="70" width="100" height="20" as="geometry" />
        </mxCell>
      </root>
    </mxGraphModel>
  </diagram>
</mxfile>
